<svg width="99.999995" height="99.999995" xmlns="http://www.w3.org/2000/svg">

 <g>
  <title>background</title>
  <rect fill="none" id="canvas_background" height="402" width="582" y="-1" x="-1"/>
 </g>
 <g>
  <title fill="#ffffff">Layer 1</title>
  <path fill="#ffffff" fill-rule="nonzero" stroke-width="3.8" stroke-linecap="round" stroke-linejoin="round" stroke-miterlimit="4" stroke-dashoffset="0" id="rect4208" d="m20,0c-11.08001,0 -20,8.91999 -20,20l0,60c0,11.08001 8.91999,20 20,20l60,0c11.08001,0 20,-8.91999 20,-20l0,-60c0,-11.08001 -8.91999,-20 -20,-20l-60,0zm-1.37305,21.0957l62.7461,0c3.64152,0 6.68164,3.04208 6.68164,6.6836l0,44.44336c0,3.64152 -3.04012,6.68164 -6.68164,6.68164l-62.7461,0c-3.64152,0 -6.68164,-3.04012 -6.68164,-6.68164l0,-44.44336c0,-3.64152 3.04012,-6.6836 6.68164,-6.6836zm4.02539,7l27.35157,28.31055l27.47461,-28.31055l-54.82618,0zm-3.70703,3.35938l0,36.43945l17.90625,-17.90625l-17.90625,-18.5332zm62.10938,0.13476l-18.00391,18.55079l18.00391,18.0039l0,-36.55469zm-40.72852,21.99414l-18.32031,18.32032l55.73828,0l-18.17578,-18.17578l-7.77344,8.01171a2.50025,2.50025 0 0 1 -3.59375,-0.0039l-7.875,-8.15235z"/>
 </g>
</svg>